# xmcd
# 
# Track frame offsets:
#     150
#     17184
#     33912
#     53031
#     71800
#     92070
#     107020
#     122072
#     134714
#     151380
#     169321
#     190487
#     205515
#     225539
#     242294
#     265046
#     282878
#     300053
#     317193
#     333992
# 
# Disc length: 4677
# 
# Revision: 3
# Processed by: cddbd v1.5.2PL0 Copyright (c) Steve Scherf et al.
# Submitted via: fre:ac v1.0.17
# 
DISCID=10124314
DTITLE=Various Artist - Ultimate 90 CD 4
DYEAR=2004
DGENRE=Blues
TTITLE0=Black and White Bros. - Put Your Hands Up
TTITLE1=MC Hammer - U Can't Touch This
TTITLE2=Shabba Ranks - Mr Loverman
TTITLE3=Kelis - Caught Out There
TTITLE4=Vanilla Ice - Ice Ice Baby
TTITLE5=Black Legend - You See The Trouble In Me
TTITLE6=The Bucketheads - The Bomb !
TTITLE7=Neneh Cherry - Buddy X
TTITLE8=Charles and Eddie - Shine
TTITLE9=Eternal - Stay
TTITLE10=Arrested Development - Tennessee
TTITLE11=US 3 - Cantaloop
TTITLE12=Black Machine - How Gee
TTITLE13=Jestofunk - Say It Again
TTITLE14=Last Minister - Tribute To The JB Family
TTITLE15=Rappin' 4 Tay feat. The Spinners - I'll Be Around
TTITLE16=The Blue Boy - Remeber Me
TTITLE17=Juice T - Love U For Life
TTITLE18=3 Jays - Feeling It To
TTITLE19=Down Low - Once Upon A Time
EXTD=YEAR: 2004
EXTT0=
EXTT1=
EXTT2=
EXTT3=
EXTT4=
EXTT5=
EXTT6=
EXTT7=
EXTT8=
EXTT9=
EXTT10=
EXTT11=
EXTT12=
EXTT13=
EXTT14=
EXTT15=
EXTT16=
EXTT17=
EXTT18=
EXTT19=
PLAYORDER=
